<svg width="376" height="150" viewBox="0 0 235 94" fill="none" xmlns="http://www.w3.org/2000/svg">
<g clip-path="url(#clip0_1_2)">
<path d="M-0.24 4.52799H45.072C53.6907 4.52799 60.4747 6.66133 65.424 10.928C70.4587 15.1947 72.976 21.296 72.976 29.232C72.976 32.9867 72.1227 36.4853 70.416 39.728C68.7093 42.9707 66.2773 45.5307 63.12 47.408C67.472 49.1147 70.672 51.5893 72.72 54.832C74.768 57.9893 75.792 62.128 75.792 67.248C75.792 72.7093 74.512 77.488 71.952 81.584C69.392 85.5947 65.936 88.6667 61.584 90.8C57.3173 92.9333 52.5387 94 47.248 94H-0.24V4.52799ZM40.08 39.984C46.736 39.984 50.064 36.8693 50.064 30.64C50.064 27.1413 49.2107 24.752 47.504 23.472C45.7973 22.1067 43.1947 21.424 39.696 21.424H22.416V39.984H40.08ZM41.488 77.104C45.328 77.104 48.1867 76.3787 50.064 74.928C51.9413 73.4773 52.88 70.9173 52.88 67.248C52.88 63.5787 51.8987 60.9333 49.936 59.312C47.9733 57.6053 44.9867 56.752 40.976 56.752H22.416V77.104H41.488ZM96.792 24.368C93.3787 24.368 90.52 23.2587 88.216 21.04C85.912 18.8213 84.76 16.0053 84.76 12.592C84.76 9.264 85.912 6.49066 88.216 4.272C90.52 1.96799 93.3787 0.815994 96.792 0.815994C100.12 0.815994 102.936 1.96799 105.24 4.272C107.629 6.49066 108.824 9.264 108.824 12.592C108.824 15.92 107.629 18.736 105.24 21.04C102.936 23.2587 100.12 24.368 96.792 24.368ZM85.528 32.56H108.056V94H85.528V32.56ZM120.385 -0.592003H142.913V94H120.385V-0.592003ZM154.385 -0.592003H176.913V94H154.385V-0.592003ZM188.385 32.56H210.145V40.24C212.534 37.5093 215.905 35.4187 220.257 33.968C224.609 32.432 229.43 31.664 234.721 31.664V48.944C229.089 48.944 224.097 49.7547 219.745 51.376C215.478 52.9973 212.534 55.4293 210.913 58.672V94H188.385V32.56Z" fill="#141A1F"/>
</g>
<defs>
<clipPath id="clip0_1_2">
<rect width="235" height="94" fill="white"/>
</clipPath>
</defs>
</svg>
